<svg height="64pt" preserveAspectRatio="xMidYMid meet" viewBox="0 0 64 64" width="64pt" xmlns="http://www.w3.org/2000/svg"><g transform="matrix(.1 0 0 -.1 0 64)"><path d="m167 614c-4-4-7-18-7-31 0-16-6-23-20-23-18 0-20-7-20-70s2-70 19-70c14 0 21-8 23-27l3-28h155 155l3 28c2 19 9 27 23 27 17 0 19 7 19 70s-2 70-19 70c-14 0-21 8-23 28l-3 27-151 3c-82 1-153-1-157-4zm293-64v-50h-140-140v50 50h140 140zm-300-60c0-27-4-50-10-50-5 0-10 23-10 50 0 28 5 50 10 50 6 0 10-22 10-50zm340 0c0-27-4-50-10-50-5 0-10 23-10 50 0 28 5 50 10 50 6 0 10-22 10-50zm-40-60v-50h-140-140v50 50h140 140z"/><path d="m204 566c-10-26 4-48 28-44 33 4 33 52 0 56-13 2-25-3-28-12z"/><path d="m300 550c0-5 5-10 10-10 6 0 10 5 10 10 0 6-4 10-10 10-5 0-10-4-10-10z"/><path d="m340 550c0-5 5-10 10-10 6 0 10 5 10 10 0 6-4 10-10 10-5 0-10-4-10-10z"/><path d="m380 550c0-5 5-10 10-10 6 0 10 5 10 10 0 6-4 10-10 10-5 0-10-4-10-10z"/><path d="m420 550c0-5 5-10 10-10 6 0 10 5 10 10 0 6-4 10-10 10-5 0-10-4-10-10z"/><path d="m204 446c-10-26 4-48 28-44 33 4 33 52 0 56-13 2-25-3-28-12z"/><path d="m300 430c0-5 5-10 10-10 6 0 10 5 10 10 0 6-4 10-10 10-5 0-10-4-10-10z"/><path d="m340 430c0-5 5-10 10-10 6 0 10 5 10 10 0 6-4 10-10 10-5 0-10-4-10-10z"/><path d="m380 430c0-5 5-10 10-10 6 0 10 5 10 10 0 6-4 10-10 10-5 0-10-4-10-10z"/><path d="m420 430c0-5 5-10 10-10 6 0 10 5 10 10 0 6-4 10-10 10-5 0-10-4-10-10z"/><path d="m20 570c0-5 5-10 10-10 6 0 10 5 10 10 0 6-4 10-10 10-5 0-10-4-10-10z"/><path d="m600 570c0-5 5-10 10-10 6 0 10 5 10 10 0 6-4 10-10 10-5 0-10-4-10-10z"/><path d="m60 550c0-5 5-10 10-10 6 0 10 5 10 10 0 6-4 10-10 10-5 0-10-4-10-10z"/><path d="m560 550c0-5 5-10 10-10 6 0 10 5 10 10 0 6-4 10-10 10-5 0-10-4-10-10z"/><path d="m20 530c0-5 5-10 10-10 6 0 10 5 10 10 0 6-4 10-10 10-5 0-10-4-10-10z"/><path d="m600 530c0-5 5-10 10-10 6 0 10 5 10 10 0 6-4 10-10 10-5 0-10-4-10-10z"/><path d="m60 510c0-5 5-10 10-10 6 0 10 5 10 10 0 6-4 10-10 10-5 0-10-4-10-10z"/><path d="m560 510c0-5 5-10 10-10 6 0 10 5 10 10 0 6-4 10-10 10-5 0-10-4-10-10z"/><path d="m20 470c0-16 5-30 10-30 6 0 10 14 10 30 0 17-4 30-10 30-5 0-10-13-10-30z"/><path d="m600 470c0-16 5-30 10-30 6 0 10 14 10 30 0 17-4 30-10 30-5 0-10-13-10-30z"/><path d="m60 460c0-11 5-20 10-20 6 0 10 9 10 20s-4 20-10 20c-5 0-10-9-10-20z"/><path d="m560 460c0-11 5-20 10-20 6 0 10 9 10 20s-4 20-10 20c-5 0-10-9-10-20z"/><path d="m504 375c-6-14 16-75 26-75s32 61 26 75c-3 8-15 15-26 15s-23-7-26-15z"/><path d="m100 330c0-16 5-30 10-30 6 0 10 14 10 30 0 17-4 30-10 30-5 0-10-13-10-30z"/><path d="m151 310c-16-37-9-60 19-60 11 0 23 7 26 15 6 14-16 75-26 75-3 0-11-14-19-30z"/><path d="m460 330c0-5 5-10 10-10 6 0 10 5 10 10 0 6-4 10-10 10-5 0-10-4-10-10z"/><path d="m460 280c0-11 5-20 10-20 6 0 10 9 10 20s-4 20-10 20c-5 0-10-9-10-20z"/><path d="m100 270c0-5 5-10 10-10 6 0 10 5 10 10 0 6-4 10-10 10-5 0-10-4-10-10z"/><path d="m520 270c0-5 5-10 10-10 6 0 10 5 10 10 0 6-4 10-10 10-5 0-10-4-10-10z"/><path d="m44 227c-3-8-4-43-2-78l3-64 38-3c40-3 45-12 22-36-8-8-15-17-15-20s32-6 70-6c39 0 70 3 70 6s-7 12-15 20c-23 24-18 33 23 36l37 3v75 75l-113 3c-89 2-114 0-118-11zm214-49 3-38h-100-101v33c0 19 3 37 7 41s48 5 98 4l90-3zm2-68c0-6-40-10-100-10s-100 4-100 10 40 10 100 10 100-4 100-10zm-80-50c0-13-7-20-20-20s-20 7-20 20 7 20 20 20 20-7 20-20z"/><path d="m364 227c-3-8-4-43-2-78l3-64 38-3c40-3 45-12 22-36-8-8-15-17-15-20s32-6 70-6c39 0 70 3 70 6s-7 12-15 20c-23 24-18 33 23 36l37 3v75 75l-113 3c-89 2-114 0-118-11zm214-49 3-38h-100-101v33c0 19 3 37 7 41s48 5 98 4l90-3zm2-68c0-6-40-10-100-10s-100 4-100 10 40 10 100 10 100-4 100-10zm-80-50c0-13-7-20-20-20s-20 7-20 20 7 20 20 20 20-7 20-20z"/></g></svg>